<svg xmlns="http://www.w3.org/2000/svg" xmlns:xlink="http://www.w3.org/1999/xlink" contentStyleType="text/css" data-diagram-type="DESCRIPTION" height="619px" preserveAspectRatio="none" style="width:722px;height:619px;background:#FFFFFF;" version="1.1" viewBox="0 0 722 619" width="722px" zoomAndPan="magnify"><?plantuml 1.2026.5?><defs/><g><!--cluster ???-????--><g class="cluster" data-qualified-name="...-...." data-source-line="7" id="ent0004"><rect fill="none" height="504" rx="2.5" ry="2.5" style="stroke:#181818;stroke-width:1;" width="538.45" x="170.32" y="7"/><text fill="#000000" font-family="sans-serif" font-size="14" font-weight="700" lengthAdjust="spacing" textLength="71.4219" x="403.8341" y="21.9951">&#1042;&#1077;&#1073;-&#1089;&#1072;&#1081;&#1090;</text></g><!--entity UC1--><g class="entity" data-qualified-name="...-.....UC1" data-source-line="8" id="ent0005"><ellipse cx="307.1746" cy="396.0009" fill="#F1F1F1" rx="120.8546" ry="26.5709" style="stroke:#181818;stroke-width:0.5;"/><text fill="#000000" font-family="sans-serif" font-size="14" lengthAdjust="spacing" textLength="221.1768" x="196.5863" y="400.6494">&#1055;&#1088;&#1086;&#1089;&#1084;&#1086;&#1090;&#1088; &#1089;&#1087;&#1080;&#1089;&#1082;&#1072; &#1089;&#1083;&#1091;&#1096;&#1072;&#1090;&#1077;&#1083;&#1077;&#1081;</text></g><!--entity UC2--><g class="entity" data-qualified-name="...-.....UC2" data-source-line="9" id="ent0006"><ellipse cx="307.1706" cy="476.0021" fill="#F1F1F1" rx="82.0606" ry="18.8121" style="stroke:#181818;stroke-width:0.5;"/><text fill="#000000" font-family="sans-serif" font-size="14" lengthAdjust="spacing" textLength="135.5088" x="239.4162" y="480.6506">&#1042;&#1099;&#1093;&#1086;&#1076; &#1080;&#1079; &#1089;&#1080;&#1089;&#1090;&#1077;&#1084;&#1099;</text></g><!--entity UC3--><g class="entity" data-qualified-name="...-.....UC3" data-source-line="10" id="ent0007"><ellipse cx="307.168" cy="309.0036" fill="#F1F1F1" rx="114.268" ry="25.2536" style="stroke:#181818;stroke-width:0.5;"/><text fill="#000000" font-family="sans-serif" font-size="14" lengthAdjust="spacing" textLength="207.0811" x="203.6275" y="313.652">&#1056;&#1077;&#1076;&#1072;&#1082;&#1090;&#1080;&#1088;&#1086;&#1074;&#1072;&#1085;&#1080;&#1077; &#1089;&#1083;&#1091;&#1096;&#1072;&#1090;&#1077;&#1083;&#1103;</text></g><!--entity UC4--><g class="entity" data-qualified-name="...-.....UC4" data-source-line="11" id="ent0008"><ellipse cx="307.1654" cy="63.0011" fill="#F1F1F1" rx="91.0554" ry="20.6111" style="stroke:#181818;stroke-width:0.5;"/><text fill="#000000" font-family="sans-serif" font-size="14" lengthAdjust="spacing" textLength="156.126" x="229.1024" y="67.6495">&#1059;&#1076;&#1072;&#1083;&#1077;&#1085;&#1080;&#1077; &#1089;&#1083;&#1091;&#1096;&#1072;&#1090;&#1077;&#1083;&#1103;</text></g><!--entity UC5--><g class="entity" data-qualified-name="...-.....UC5" data-source-line="12" id="ent0009"><ellipse cx="307.1671" cy="144.0034" fill="#F1F1F1" rx="117.4171" ry="25.8834" style="stroke:#181818;stroke-width:0.5;"/><text fill="#000000" font-family="sans-serif" font-size="14" lengthAdjust="spacing" textLength="213.835" x="200.2496" y="148.6519">&#1059;&#1087;&#1088;&#1072;&#1074;&#1083;&#1077;&#1085;&#1080;&#1077; &#1087;&#1086;&#1083;&#1100;&#1079;&#1086;&#1074;&#1072;&#1090;&#1077;&#1083;&#1103;&#1084;&#1080;</text></g><!--entity UC6--><g class="entity" data-qualified-name="...-.....UC6" data-source-line="13" id="ent0010"><ellipse cx="307.1744" cy="227.0009" fill="#F1F1F1" rx="99.2044" ry="22.2409" style="stroke:#181818;stroke-width:0.5;"/><text fill="#000000" font-family="sans-serif" font-size="14" lengthAdjust="spacing" textLength="174.3027" x="220.023" y="231.6493">&#1044;&#1086;&#1073;&#1072;&#1074;&#1083;&#1077;&#1085;&#1080;&#1077; &#1089;&#1083;&#1091;&#1096;&#1072;&#1090;&#1077;&#1083;&#1103;</text></g><!--entity UC_Login--><g class="entity" data-qualified-name="...-.....UC_Login" data-source-line="14" id="ent0011"><ellipse cx="616.5143" cy="309.0029" fill="#F1F1F1" rx="76.2643" ry="17.6529" style="stroke:#181818;stroke-width:0.5;"/><text fill="#000000" font-family="sans-serif" font-size="14" lengthAdjust="spacing" textLength="121.7822" x="555.6232" y="313.6513">&#1042;&#1086;&#1081;&#1090;&#1080; &#1074; &#1089;&#1080;&#1089;&#1090;&#1077;&#1084;&#1091;</text></g><!--entity Admin--><g class="entity" data-qualified-name="Admin" data-source-line="3" id="ent0001"><ellipse cx="64.0474" cy="239.35" fill="#F1F1F1" rx="8" ry="8" style="stroke:#181818;stroke-width:0.5;"/><path d="M64.0474,247.35 L64.0474,274.35 M51.0474,255.35 L77.0474,255.35 M64.0474,274.35 L51.0474,289.35 M64.0474,274.35 L77.0474,289.35" fill="none" style="stroke:#181818;stroke-width:0.5;"/><text fill="#000000" font-family="sans-serif" font-size="14" lengthAdjust="spacing" textLength="116.0947" x="6" y="303.8451">&#1040;&#1076;&#1084;&#1080;&#1085;&#1080;&#1089;&#1090;&#1088;&#1072;&#1090;&#1086;&#1088;</text></g><!--entity Operator--><g class="entity" data-qualified-name="Operator" data-source-line="4" id="ent0002"><ellipse cx="64.0497" cy="414.35" fill="#F1F1F1" rx="8" ry="8" style="stroke:#181818;stroke-width:0.5;"/><path d="M64.0497,422.35 L64.0497,449.35 M51.0497,430.35 L77.0497,430.35 M64.0497,449.35 L51.0497,464.35 M64.0497,449.35 L77.0497,464.35" fill="none" style="stroke:#181818;stroke-width:0.5;"/><text fill="#000000" font-family="sans-serif" font-size="14" lengthAdjust="spacing" textLength="71.8594" x="28.12" y="478.8451">&#1054;&#1087;&#1077;&#1088;&#1072;&#1090;&#1086;&#1088;</text></g><!--entity Guest--><g class="entity" data-qualified-name="Guest" data-source-line="5" id="ent0003"><ellipse cx="307.1657" cy="538.35" fill="#F1F1F1" rx="8" ry="8" style="stroke:#181818;stroke-width:0.5;"/><path d="M307.1657,546.35 L307.1657,573.35 M294.1657,554.35 L320.1657,554.35 M307.1657,573.35 L294.1657,588.35 M307.1657,573.35 L320.1657,588.35" fill="none" style="stroke:#181818;stroke-width:0.5;"/><text fill="#000000" font-family="sans-serif" font-size="14" lengthAdjust="spacing" textLength="248.1514" x="183.09" y="602.8451">&#1053;&#1077;&#1072;&#1074;&#1090;&#1086;&#1088;&#1080;&#1079;&#1086;&#1074;&#1072;&#1085;&#1085;&#1099;&#1081; &#1087;&#1086;&#1083;&#1100;&#1079;&#1086;&#1074;&#1072;&#1090;&#1077;&#1083;&#1100;</text></g><!--link UC1 to UC_Login--><g class="link" data-entity-1="ent0005" data-entity-2="ent0011" data-link-type="dependency" data-source-line="18" id="lnk12"><path d="M382.57,374.94 C439.77,358.75 512.3491,338.2019 561.9091,324.1719" fill="none" id="UC1-to-UC_Login" style="stroke:#181818;stroke-width:1;"/><polygon fill="#181818" points="566.72,322.81,556.9708,321.4127,561.9091,324.1719,559.1499,329.1102,566.72,322.81" style="stroke:#181818;stroke-width:1;stroke-linejoin:miter;stroke-miterlimit:10;"/><text fill="#000000" font-family="sans-serif" font-size="13" lengthAdjust="spacing" textLength="47.0996" x="462.25" y="336.0669">include</text></g><!--link UC2 to UC_Login--><g class="link" data-entity-1="ent0006" data-entity-2="ent0011" data-link-type="dependency" data-source-line="19" id="lnk13"><path d="M367.57,462.92 C388.28,457.25 411.31,449.66 431.25,440 C496.59,408.33 559.9285,357.2795 592.1385,329.5895" fill="none" id="UC2-to-UC_Login" style="stroke:#181818;stroke-width:1;"/><polygon fill="#181818" points="595.93,326.33,586.4976,329.1638,592.1385,329.5895,591.7128,335.2303,595.93,326.33" style="stroke:#181818;stroke-width:1;stroke-linejoin:miter;stroke-miterlimit:10;"/><text fill="#000000" font-family="sans-serif" font-size="13" lengthAdjust="spacing" textLength="47.0996" x="462.25" y="392.0669">include</text></g><!--link UC3 to UC_Login--><g class="link" data-entity-1="ent0007" data-entity-2="ent0011" data-link-type="dependency" data-source-line="20" id="lnk14"><path d="M421.74,309 C461.24,309 499.54,309 535.17,309" fill="none" id="UC3-to-UC_Login" style="stroke:#181818;stroke-width:1;"/><polygon fill="#181818" points="540.17,309,531.17,305,535.17,309,531.17,313,540.17,309" style="stroke:#181818;stroke-width:1;stroke-linejoin:miter;stroke-miterlimit:10;"/><text fill="#000000" font-family="sans-serif" font-size="13" lengthAdjust="spacing" textLength="47.0996" x="462.25" y="305.0669">include</text></g><!--link UC4 to UC_Login--><g class="link" data-entity-1="ent0008" data-entity-2="ent0011" data-link-type="dependency" data-source-line="21" id="lnk15"><path d="M374.88,77.2 C393.91,82.92 414.1,90.67 431.25,101 C514.3,151.06 577.9229,246.4674 602.5529,286.9874" fill="none" id="UC4-to-UC_Login" style="stroke:#181818;stroke-width:1;"/><polygon fill="#181818" points="605.15,291.26,603.8933,281.4916,602.5529,286.9874,597.0572,285.647,605.15,291.26" style="stroke:#181818;stroke-width:1;stroke-linejoin:miter;stroke-miterlimit:10;"/><text fill="#000000" font-family="sans-serif" font-size="13" lengthAdjust="spacing" textLength="47.0996" x="462.25" y="119.0669">include</text></g><!--link UC5 to UC_Login--><g class="link" data-entity-1="ent0009" data-entity-2="ent0011" data-link-type="dependency" data-source-line="22" id="lnk16"><path d="M378.09,165.05 C395.79,171.29 414.52,178.7 431.25,187 C493.63,217.95 556.206,263.3057 589.656,288.8457" fill="none" id="UC5-to-UC_Login" style="stroke:#181818;stroke-width:1;"/><polygon fill="#181818" points="593.63,291.88,588.9042,283.239,589.656,288.8457,584.0493,289.5975,593.63,291.88" style="stroke:#181818;stroke-width:1;stroke-linejoin:miter;stroke-miterlimit:10;"/><text fill="#000000" font-family="sans-serif" font-size="13" lengthAdjust="spacing" textLength="47.0996" x="462.25" y="201.0669">include</text></g><!--link UC6 to UC_Login--><g class="link" data-entity-1="ent0010" data-entity-2="ent0011" data-link-type="dependency" data-source-line="23" id="lnk17"><path d="M372.22,244.09 C429.58,259.39 507.689,280.2311 560.389,294.2911" fill="none" id="UC6-to-UC_Login" style="stroke:#181818;stroke-width:1;"/><polygon fill="#181818" points="565.22,295.58,557.5553,289.3952,560.389,294.2911,555.4931,297.1248,565.22,295.58" style="stroke:#181818;stroke-width:1;stroke-linejoin:miter;stroke-miterlimit:10;"/><text fill="#000000" font-family="sans-serif" font-size="13" lengthAdjust="spacing" textLength="47.0996" x="462.25" y="264.0669">include</text></g><!--link Admin to UC1--><g class="link" data-entity-1="ent0001" data-entity-2="ent0005" data-link-type="dependency" data-source-line="26" id="lnk18"><path d="M102.52,307.32 C119.55,322.97 140.71,340.15 162.32,352 C180.86,362.17 197.3094,368.8129 217.6394,375.1929" fill="none" id="Admin-to-UC1" style="stroke:#181818;stroke-width:1;"/><polygon fill="#181818" points="222.41,376.69,215.0206,370.1787,217.6394,375.1929,212.6252,377.8117,222.41,376.69" style="stroke:#181818;stroke-width:1;stroke-linejoin:miter;stroke-miterlimit:10;"/></g><!--link Admin to UC2--><g class="link" data-entity-1="ent0001" data-entity-2="ent0006" data-link-type="dependency" data-source-line="27" id="lnk19"><path d="M84.95,307.63 C109.8,355.25 150.48,431.02 162.32,440 C181.9,454.87 202.0059,462.5798 225.6459,467.7598" fill="none" id="Admin-to-UC2" style="stroke:#181818;stroke-width:1;"/><polygon fill="#181818" points="230.53,468.83,222.5947,462.9963,225.6459,467.7598,220.8824,470.8109,230.53,468.83" style="stroke:#181818;stroke-width:1;stroke-linejoin:miter;stroke-miterlimit:10;"/></g><!--link Admin to UC3--><g class="link" data-entity-1="ent0001" data-entity-2="ent0007" data-link-type="dependency" data-source-line="28" id="lnk20"><path d="M122.5,278.53 C150.08,283.11 178.8574,287.8819 209.8474,293.0219" fill="none" id="Admin-to-UC3" style="stroke:#181818;stroke-width:1;"/><polygon fill="#181818" points="214.78,293.84,206.5558,288.4213,209.8474,293.0219,205.2468,296.3135,214.78,293.84" style="stroke:#181818;stroke-width:1;stroke-linejoin:miter;stroke-miterlimit:10;"/></g><!--link Admin to UC4--><g class="link" data-entity-1="ent0001" data-entity-2="ent0008" data-link-type="dependency" data-source-line="29" id="lnk21"><path d="M77.47,230.37 C91.84,191.89 119.19,133.93 162.32,101 C180.59,87.05 198.6928,79.4366 220.8628,73.8266" fill="none" id="Admin-to-UC4" style="stroke:#181818;stroke-width:1;"/><polygon fill="#181818" points="225.71,72.6,216.0038,70.93,220.8628,73.8266,217.9663,78.6856,225.71,72.6" style="stroke:#181818;stroke-width:1;stroke-linejoin:miter;stroke-miterlimit:10;"/></g><!--link Admin to UC5--><g class="link" data-entity-1="ent0001" data-entity-2="ent0009" data-link-type="dependency" data-source-line="30" id="lnk22"><path d="M103.02,230.68 C119.98,215.32 140.94,198.55 162.32,187 C181.12,176.84 197.8574,170.2385 218.4174,163.9685" fill="none" id="Admin-to-UC5" style="stroke:#181818;stroke-width:1;"/><polygon fill="#181818" points="223.2,162.51,213.4246,161.3092,218.4174,163.9685,215.7582,168.9613,223.2,162.51" style="stroke:#181818;stroke-width:1;stroke-linejoin:miter;stroke-miterlimit:10;"/></g><!--link Admin to UC6--><g class="link" data-entity-1="ent0001" data-entity-2="ent0010" data-link-type="dependency" data-source-line="31" id="lnk23"><path d="M122.5,258.99 C153.98,253.51 188.5244,247.4993 222.8044,241.5193" fill="none" id="Admin-to-UC6" style="stroke:#181818;stroke-width:1;"/><polygon fill="#181818" points="227.73,240.66,218.1765,238.2662,222.8044,241.5193,219.5513,246.1471,227.73,240.66" style="stroke:#181818;stroke-width:1;stroke-linejoin:miter;stroke-miterlimit:10;"/></g><!--link Operator to UC1--><g class="link" data-entity-1="ent0002" data-entity-2="ent0005" data-link-type="dependency" data-source-line="34" id="lnk24"><path d="M100.37,436.97 C130.78,430.92 171.1061,422.8854 211.4261,414.8654" fill="none" id="Operator-to-UC1" style="stroke:#181818;stroke-width:1;"/><polygon fill="#181818" points="216.33,413.89,206.7226,411.7226,211.4261,414.8654,208.2833,419.5689,216.33,413.89" style="stroke:#181818;stroke-width:1;stroke-linejoin:miter;stroke-miterlimit:10;"/></g><!--link Operator to UC2--><g class="link" data-entity-1="ent0002" data-entity-2="ent0006" data-link-type="dependency" data-source-line="35" id="lnk25"><path d="M100.37,448.69 C135.69,453.38 186.0335,460.0622 230.4135,465.9522" fill="none" id="Operator-to-UC2" style="stroke:#181818;stroke-width:1;"/><polygon fill="#181818" points="235.37,466.61,226.9745,461.4607,230.4135,465.9522,225.922,469.3912,235.37,466.61" style="stroke:#181818;stroke-width:1;stroke-linejoin:miter;stroke-miterlimit:10;"/></g><!--link Guest to UC_Login--><g class="link" data-entity-1="ent0003" data-entity-2="ent0011" data-link-type="dependency" data-source-line="38" id="lnk26"><path d="M400.93,529.48 C411.47,523.82 421.81,517.64 431.25,511 C508.33,456.81 573.7994,369.3109 600.5994,330.8909" fill="none" id="Guest-to-UC_Login" style="stroke:#181818;stroke-width:1;"/><polygon fill="#181818" points="603.46,326.79,595.0303,331.8831,600.5994,330.8909,601.5917,336.46,603.46,326.79" style="stroke:#181818;stroke-width:1;stroke-linejoin:miter;stroke-miterlimit:10;"/></g><?plantuml-src dLHDQy904BtlhnYyUFBWLmuU2gM7KYZqr7C9cjg0ZSN4KobOfRHWqIAzzWFw1rGCzJF-XPb_rDarfjr847g8SVQzUMzsTYSrwz83hmuDkthbGSLkM6NFhZj2c6Mlte0Klk04bpZ55KxfdjhKmY6rCQ1M2amN3YlNjXDntt6DVennTcCrJ8OZqXlwECJnXiB2tnZWc5TMkA8kpe0r0bpGynPWeYzZfNRSj5nF25cbwLHh5kiD61vbw9ubPjHEmQq0QBfMsNGb-i4U0ODB_kNYWV-kvKvmZaCPBAX3JriJVcRAvlmegwaCg4iFNCu4PC4oJpM3-KlgXXavBUEJiGcND6VMLDOGxd6A_eujzKE9l2RnfGHaKNlI2h6qjJm2zljDJUXfNvviA5BKH5wPDug99FeRUgyuTIPt3JZMEzK9-HUdzIhVcZiXqd3Yb6lDYkMMcCra7mmfbP5QQLahB_DHBQX7Z-pRe_OU1y571vdCGMG39R0t7Wpbag5yCbH8Xeh9a944yQwJfmfujq7O2ro28TI4XL9PBSffKLwB2bfKr293LH2RLP0lTKMK_npKBVepETG1rV3j9517R4SxgYwsa5D6_vtttOh6aRFw36Zz_G40?></g></svg>