<svg xmlns="http://www.w3.org/2000/svg" xmlns:xlink="http://www.w3.org/1999/xlink" contentStyleType="text/css" data-diagram-type="SEQUENCE" height="608px" preserveAspectRatio="none" style="width:918px;height:608px;" version="1.1" viewBox="0 0 918 608" width="918px" zoomAndPan="magnify"><?plantuml 1.2026.5?><defs/><g><g><title>app.py</title><rect fill="#FFFFFF" height="374.3984" style="stroke:#181818;stroke-width:1;" width="10" x="358.9297" y="141.5625"/></g><g><title>validation.py</title><rect fill="#FFFFFF" height="29.1328" style="stroke:#181818;stroke-width:1;" width="10" x="479.5518" y="170.6953"/></g><g><title>crud.py</title><rect fill="#FFFFFF" height="174.7969" style="stroke:#181818;stroke-width:1;" width="10" x="575.2437" y="297.0313"/></g><rect fill="none" height="294.1328" style="stroke:#000000;stroke-width:1.5;" width="745.6826" x="156.8848" y="214.8281"/><g class="participant-lifeline" data-entity-uid="part1" data-qualified-name="user" data-source-line="2" id="part1-lifeline"><g><title>............</title><rect fill="#000000" fill-opacity="0.00000" height="444.6641" width="8" x="55.5498" y="81.2969"/><line style="stroke:#181818;stroke-width:0.5;stroke-dasharray:5,5;" x1="59" x2="59" y1="81.2969" y2="525.9609"/></g></g><g class="participant-lifeline" data-entity-uid="part2" data-qualified-name="browser" data-source-line="3" id="part2-lifeline"><g><title>.......</title><rect fill="#000000" fill-opacity="0.00000" height="444.6641" width="8" x="200.0347" y="81.2969"/><line style="stroke:#181818;stroke-width:0.5;stroke-dasharray:5,5;" x1="203.8848" x2="203.8848" y1="81.2969" y2="525.9609"/></g></g><g class="participant-lifeline" data-entity-uid="part3" data-qualified-name="flask" data-source-line="4" id="part3-lifeline"><g><title>app.py</title><rect fill="#000000" fill-opacity="0.00000" height="444.6641" width="8" x="359.9297" y="81.2969"/><line style="stroke:#181818;stroke-width:0.5;stroke-dasharray:5,5;" x1="362.9424" x2="362.9424" y1="81.2969" y2="525.9609"/></g></g><g class="participant-lifeline" data-entity-uid="part4" data-qualified-name="valid" data-source-line="5" id="part4-lifeline"><g><title>validation.py</title><rect fill="#000000" fill-opacity="0.00000" height="444.6641" width="8" x="480.5518" y="81.2969"/><line style="stroke:#181818;stroke-width:0.5;stroke-dasharray:5,5;" x1="484.2773" x2="484.2773" y1="81.2969" y2="525.9609"/></g></g><g class="participant-lifeline" data-entity-uid="part5" data-qualified-name="crud" data-source-line="6" id="part5-lifeline"><g><title>crud.py</title><rect fill="#000000" fill-opacity="0.00000" height="444.6641" width="8" x="576.2437" y="81.2969"/><line style="stroke:#181818;stroke-width:0.5;stroke-dasharray:5,5;" x1="579.8262" x2="579.8262" y1="81.2969" y2="525.9609"/></g></g><g class="participant-lifeline" data-entity-uid="part6" data-qualified-name="conn" data-source-line="7" id="part6-lifeline"><g><title>connection.py</title><rect fill="#000000" fill-opacity="0.00000" height="444.6641" width="8" x="733.7773" y="81.2969"/><line style="stroke:#181818;stroke-width:0.5;stroke-dasharray:5,5;" x1="737.3979" x2="737.3979" y1="81.2969" y2="525.9609"/></g></g><g class="participant-lifeline" data-entity-uid="part7" data-qualified-name="db" data-source-line="8" id="part7-lifeline"><g><title>PostgreSQL</title><rect fill="#000000" fill-opacity="0.00000" height="444.6641" width="8" x="845.1909" y="81.2969"/><line style="stroke:#181818;stroke-width:0.5;stroke-dasharray:5,5;" x1="848.8145" x2="848.8145" y1="81.2969" y2="525.9609"/></g></g><g class="participant participant-head" data-entity-uid="part1" data-qualified-name="user" data-source-line="2" id="part1-head"><text fill="#000000" font-family="sans-serif" font-size="14" lengthAdjust="spacing" textLength="103.0996" x="5" y="77.9951">&#1055;&#1086;&#1083;&#1100;&#1079;&#1086;&#1074;&#1072;&#1090;&#1077;&#1083;&#1100;</text><ellipse cx="59.5498" cy="13.5" fill="#E2E2F0" rx="8" ry="8" style="stroke:#181818;stroke-width:0.5;"/><path d="M59.5498,21.5 L59.5498,48.5 M46.5498,29.5 L72.5498,29.5 M59.5498,48.5 L46.5498,63.5 M59.5498,48.5 L72.5498,63.5" fill="none" style="stroke:#181818;stroke-width:0.5;"/></g><g class="participant participant-tail" data-entity-uid="part1" data-qualified-name="user" data-source-line="2" id="part1-tail"><text fill="#000000" font-family="sans-serif" font-size="14" lengthAdjust="spacing" textLength="103.0996" x="5" y="537.9561">&#1055;&#1086;&#1083;&#1100;&#1079;&#1086;&#1074;&#1072;&#1090;&#1077;&#1083;&#1100;</text><ellipse cx="59.5498" cy="549.7578" fill="#E2E2F0" rx="8" ry="8" style="stroke:#181818;stroke-width:0.5;"/><path d="M59.5498,557.7578 L59.5498,584.7578 M46.5498,565.7578 L72.5498,565.7578 M59.5498,584.7578 L46.5498,599.7578 M59.5498,584.7578 L72.5498,599.7578" fill="none" style="stroke:#181818;stroke-width:0.5;"/></g><g class="participant participant-head" data-entity-uid="part2" data-qualified-name="browser" data-source-line="3" id="part2-head"><rect fill="#E2E2F0" height="30.2969" rx="2.5" ry="2.5" style="stroke:#181818;stroke-width:0.5;" width="74.2998" x="166.8848" y="50"/><text fill="#000000" font-family="sans-serif" font-size="14" lengthAdjust="spacing" textLength="60.2998" x="173.8848" y="69.9951">&#1041;&#1088;&#1072;&#1091;&#1079;&#1077;&#1088;</text></g><g class="participant participant-tail" data-entity-uid="part2" data-qualified-name="browser" data-source-line="3" id="part2-tail"><rect fill="#E2E2F0" height="30.2969" rx="2.5" ry="2.5" style="stroke:#181818;stroke-width:0.5;" width="74.2998" x="166.8848" y="524.9609"/><text fill="#000000" font-family="sans-serif" font-size="14" lengthAdjust="spacing" textLength="60.2998" x="173.8848" y="544.9561">&#1041;&#1088;&#1072;&#1091;&#1079;&#1077;&#1088;</text></g><g class="participant participant-head" data-entity-uid="part3" data-qualified-name="flask" data-source-line="4" id="part3-head"><rect fill="#E2E2F0" height="30.2969" rx="2.5" ry="2.5" style="stroke:#181818;stroke-width:0.5;" width="61.9746" x="332.9424" y="50"/><text fill="#000000" font-family="sans-serif" font-size="14" lengthAdjust="spacing" textLength="47.9746" x="339.9424" y="69.9951">app.py</text></g><g class="participant participant-tail" data-entity-uid="part3" data-qualified-name="flask" data-source-line="4" id="part3-tail"><rect fill="#E2E2F0" height="30.2969" rx="2.5" ry="2.5" style="stroke:#181818;stroke-width:0.5;" width="61.9746" x="332.9424" y="524.9609"/><text fill="#000000" font-family="sans-serif" font-size="14" lengthAdjust="spacing" textLength="47.9746" x="339.9424" y="544.9561">app.py</text></g><g class="participant participant-head" data-entity-uid="part4" data-qualified-name="valid" data-source-line="5" id="part4-head"><rect fill="#E2E2F0" height="30.2969" rx="2.5" ry="2.5" style="stroke:#181818;stroke-width:0.5;" width="104.5488" x="432.2773" y="50"/><text fill="#000000" font-family="sans-serif" font-size="14" lengthAdjust="spacing" textLength="90.5488" x="439.2773" y="69.9951">validation.py</text></g><g class="participant participant-tail" data-entity-uid="part4" data-qualified-name="valid" data-source-line="5" id="part4-tail"><rect fill="#E2E2F0" height="30.2969" rx="2.5" ry="2.5" style="stroke:#181818;stroke-width:0.5;" width="104.5488" x="432.2773" y="524.9609"/><text fill="#000000" font-family="sans-serif" font-size="14" lengthAdjust="spacing" textLength="90.5488" x="439.2773" y="544.9561">validation.py</text></g><g class="participant participant-head" data-entity-uid="part5" data-qualified-name="crud" data-source-line="6" id="part5-head"><rect fill="#E2E2F0" height="30.2969" rx="2.5" ry="2.5" style="stroke:#181818;stroke-width:0.5;" width="66.835" x="546.8262" y="50"/><text fill="#000000" font-family="sans-serif" font-size="14" lengthAdjust="spacing" textLength="52.835" x="553.8262" y="69.9951">crud.py</text></g><g class="participant participant-tail" data-entity-uid="part5" data-qualified-name="crud" data-source-line="6" id="part5-tail"><rect fill="#E2E2F0" height="30.2969" rx="2.5" ry="2.5" style="stroke:#181818;stroke-width:0.5;" width="66.835" x="546.8262" y="524.9609"/><text fill="#000000" font-family="sans-serif" font-size="14" lengthAdjust="spacing" textLength="52.835" x="553.8262" y="544.9561">crud.py</text></g><g class="participant participant-head" data-entity-uid="part6" data-qualified-name="conn" data-source-line="7" id="part6-head"><rect fill="#E2E2F0" height="30.2969" rx="2.5" ry="2.5" style="stroke:#181818;stroke-width:0.5;" width="112.7588" x="681.3979" y="50"/><text fill="#000000" font-family="sans-serif" font-size="14" lengthAdjust="spacing" textLength="98.7588" x="688.3979" y="69.9951">connection.py</text></g><g class="participant participant-tail" data-entity-uid="part6" data-qualified-name="conn" data-source-line="7" id="part6-tail"><rect fill="#E2E2F0" height="30.2969" rx="2.5" ry="2.5" style="stroke:#181818;stroke-width:0.5;" width="112.7588" x="681.3979" y="524.9609"/><text fill="#000000" font-family="sans-serif" font-size="14" lengthAdjust="spacing" textLength="98.7588" x="688.3979" y="544.9561">connection.py</text></g><g class="participant participant-head" data-entity-uid="part7" data-qualified-name="db" data-source-line="8" id="part7-head"><text fill="#000000" font-family="sans-serif" font-size="14" lengthAdjust="spacing" textLength="80.7529" x="805.8145" y="77.9951">PostgreSQL</text><path d="M831.1909,29 C831.1909,19 849.1909,19 849.1909,19 C849.1909,19 867.1909,19 867.1909,29 L867.1909,55 C867.1909,65 849.1909,65 849.1909,65 C849.1909,65 831.1909,65 831.1909,55 L831.1909,29" fill="#E2E2F0" style="stroke:#181818;stroke-width:0.5;"/><path d="M831.1909,29 C831.1909,39 849.1909,39 849.1909,39 C849.1909,39 867.1909,39 867.1909,29" fill="none" style="stroke:#181818;stroke-width:0.5;"/></g><g class="participant participant-tail" data-entity-uid="part7" data-qualified-name="db" data-source-line="8" id="part7-tail"><text fill="#000000" font-family="sans-serif" font-size="14" lengthAdjust="spacing" textLength="80.7529" x="805.8145" y="537.9561">PostgreSQL</text><path d="M831.1909,551.2578 C831.1909,541.2578 849.1909,541.2578 849.1909,541.2578 C849.1909,541.2578 867.1909,541.2578 867.1909,551.2578 L867.1909,577.2578 C867.1909,587.2578 849.1909,587.2578 849.1909,587.2578 C849.1909,587.2578 831.1909,587.2578 831.1909,577.2578 L831.1909,551.2578" fill="#E2E2F0" style="stroke:#181818;stroke-width:0.5;"/><path d="M831.1909,551.2578 C831.1909,561.2578 849.1909,561.2578 849.1909,561.2578 C849.1909,561.2578 867.1909,561.2578 867.1909,551.2578" fill="none" style="stroke:#181818;stroke-width:0.5;"/></g><g><title>app.py</title><rect fill="#FFFFFF" height="374.3984" style="stroke:#181818;stroke-width:1;" width="10" x="358.9297" y="141.5625"/></g><g><title>validation.py</title><rect fill="#FFFFFF" height="29.1328" style="stroke:#181818;stroke-width:1;" width="10" x="479.5518" y="170.6953"/></g><g><title>crud.py</title><rect fill="#FFFFFF" height="174.7969" style="stroke:#181818;stroke-width:1;" width="10" x="575.2437" y="297.0313"/></g><g class="message" data-entity-1="part1" data-entity-2="part2" data-source-line="10" id="msg1"><polygon fill="#181818" points="192.0347,108.4297,202.0347,112.4297,192.0347,116.4297,196.0347,112.4297" style="stroke:#181818;stroke-width:1;stroke-linejoin:miter;stroke-miterlimit:10;"/><line style="stroke:#181818;stroke-width:1;" x1="59.5498" x2="198.0347" y1="112.4297" y2="112.4297"/><text fill="#000000" font-family="sans-serif" font-size="13" lengthAdjust="spacing" textLength="120.4849" x="66.5498" y="107.3638">&#1079;&#1072;&#1087;&#1086;&#1083;&#1085;&#1103;&#1077;&#1090; &#1092;&#1086;&#1088;&#1084;&#1091;</text></g><g class="message" data-entity-1="part2" data-entity-2="part3" data-source-line="11" id="msg2"><polygon fill="#181818" points="346.9297,137.5625,356.9297,141.5625,346.9297,145.5625,350.9297,141.5625" style="stroke:#181818;stroke-width:1;stroke-linejoin:miter;stroke-miterlimit:10;"/><line style="stroke:#181818;stroke-width:1;" x1="204.0347" x2="352.9297" y1="141.5625" y2="141.5625"/><text fill="#000000" font-family="sans-serif" font-size="13" lengthAdjust="spacing" textLength="123.4429" x="211.0347" y="136.4966">POST /add_student</text></g><g class="message" data-entity-1="part3" data-entity-2="part4" data-source-line="13" id="msg3"><polygon fill="#181818" points="467.5518,166.6953,477.5518,170.6953,467.5518,174.6953,471.5518,170.6953" style="stroke:#181818;stroke-width:1;stroke-linejoin:miter;stroke-miterlimit:10;"/><line style="stroke:#181818;stroke-width:1;" x1="368.9297" x2="473.5518" y1="170.6953" y2="170.6953"/><text fill="#000000" font-family="sans-serif" font-size="13" lengthAdjust="spacing" textLength="91.6221" x="375.9297" y="165.6294">validate(data)</text></g><g class="message" data-entity-1="part4" data-entity-2="part3" data-source-line="15" id="msg4"><polygon fill="#181818" points="379.9297,195.8281,369.9297,199.8281,379.9297,203.8281,375.9297,199.8281" style="stroke:#181818;stroke-width:1;stroke-linejoin:miter;stroke-miterlimit:10;"/><line style="stroke:#181818;stroke-width:1;stroke-dasharray:2,2;" x1="373.9297" x2="483.5518" y1="199.8281" y2="199.8281"/><text fill="#000000" font-family="sans-serif" font-size="13" lengthAdjust="spacing" textLength="69.9385" x="385.9297" y="194.7622">&#1088;&#1077;&#1079;&#1091;&#1083;&#1100;&#1090;&#1072;&#1090;</text></g><path d="M156.8848,214.8281 L221.3276,214.8281 L221.3276,221.9609 L211.3276,231.9609 L156.8848,231.9609 L156.8848,214.8281" fill="#EEEEEE" style="stroke:#000000;stroke-width:1.5;"/><rect fill="none" height="294.1328" style="stroke:#000000;stroke-width:1.5;" width="745.6826" x="156.8848" y="214.8281"/><text fill="#000000" font-family="sans-serif" font-size="13" font-weight="700" lengthAdjust="spacing" textLength="19.4429" x="171.8848" y="227.895">alt</text><text fill="#000000" font-family="sans-serif" font-size="11" font-weight="700" lengthAdjust="spacing" textLength="59.8555" x="236.3276" y="227.0386">[&#1086;&#1096;&#1080;&#1073;&#1082;&#1080;]</text><g class="message" data-entity-1="part3" data-entity-2="part2" data-source-line="18" id="msg5"><polygon fill="#181818" points="215.0347,249.0938,205.0347,253.0938,215.0347,257.0938,211.0347,253.0938" style="stroke:#181818;stroke-width:1;stroke-linejoin:miter;stroke-miterlimit:10;"/><line style="stroke:#181818;stroke-width:1;stroke-dasharray:2,2;" x1="209.0347" x2="357.9297" y1="253.0938" y2="253.0938"/><text fill="#000000" font-family="sans-serif" font-size="13" lengthAdjust="spacing" textLength="130.895" x="221.0347" y="248.0278">&#1092;&#1086;&#1088;&#1084;&#1072; &#1089; &#1086;&#1096;&#1080;&#1073;&#1082;&#1072;&#1084;&#1080;</text></g><line style="stroke:#000000;stroke-width:1;stroke-dasharray:2,2;" x1="156.8848" x2="902.5674" y1="262.0938" y2="262.0938"/><text fill="#000000" font-family="sans-serif" font-size="11" font-weight="700" lengthAdjust="spacing" textLength="45.9014" x="161.8848" y="272.3042">[&#1091;&#1089;&#1087;&#1077;&#1093;]</text><g class="message" data-entity-1="part3" data-entity-2="part5" data-source-line="20" id="msg6"><polygon fill="#181818" points="563.2437,293.0313,573.2437,297.0313,563.2437,301.0313,567.2437,297.0313" style="stroke:#181818;stroke-width:1;stroke-linejoin:miter;stroke-miterlimit:10;"/><line style="stroke:#181818;stroke-width:1;" x1="368.9297" x2="569.2437" y1="297.0313" y2="297.0313"/><text fill="#000000" font-family="sans-serif" font-size="13" lengthAdjust="spacing" textLength="76.4893" x="375.9297" y="291.9653">insert(data)</text></g><g class="message" data-entity-1="part5" data-entity-2="part6" data-source-line="22" id="msg7"><polygon fill="#181818" points="725.7773,322.1641,735.7773,326.1641,725.7773,330.1641,729.7773,326.1641" style="stroke:#181818;stroke-width:1;stroke-linejoin:miter;stroke-miterlimit:10;"/><line style="stroke:#181818;stroke-width:1;" x1="585.2437" x2="731.7773" y1="326.1641" y2="326.1641"/><text fill="#000000" font-family="sans-serif" font-size="13" lengthAdjust="spacing" textLength="109.6177" x="592.2437" y="321.0981">get_connection()</text></g><g class="message" data-entity-1="part6" data-entity-2="part7" data-source-line="23" id="msg8"><polygon fill="#181818" points="837.1909,351.2969,847.1909,355.2969,837.1909,359.2969,841.1909,355.2969" style="stroke:#181818;stroke-width:1;stroke-linejoin:miter;stroke-miterlimit:10;"/><line style="stroke:#181818;stroke-width:1;" x1="737.7773" x2="843.1909" y1="355.2969" y2="355.2969"/><text fill="#000000" font-family="sans-serif" font-size="13" lengthAdjust="spacing" textLength="87.4136" x="744.7773" y="350.231">SQL-&#1079;&#1072;&#1087;&#1088;&#1086;&#1089;&#1099;</text></g><g class="message" data-entity-1="part7" data-entity-2="part6" data-source-line="24" id="msg9"><polygon fill="#181818" points="748.7773,380.4297,738.7773,384.4297,748.7773,388.4297,744.7773,384.4297" style="stroke:#181818;stroke-width:1;stroke-linejoin:miter;stroke-miterlimit:10;"/><line style="stroke:#181818;stroke-width:1;stroke-dasharray:2,2;" x1="742.7773" x2="848.1909" y1="384.4297" y2="384.4297"/><text fill="#000000" font-family="sans-serif" font-size="13" lengthAdjust="spacing" textLength="69.9385" x="754.7773" y="379.3638">&#1088;&#1077;&#1079;&#1091;&#1083;&#1100;&#1090;&#1072;&#1090;</text></g><g class="message" data-entity-1="part6" data-entity-2="part5" data-source-line="25" id="msg10"><polygon fill="#181818" points="596.2437,409.5625,586.2437,413.5625,596.2437,417.5625,592.2437,413.5625" style="stroke:#181818;stroke-width:1;stroke-linejoin:miter;stroke-miterlimit:10;"/><line style="stroke:#181818;stroke-width:1;stroke-dasharray:2,2;" x1="590.2437" x2="736.7773" y1="413.5625" y2="413.5625"/><text fill="#000000" font-family="sans-serif" font-size="13" lengthAdjust="spacing" textLength="81.98" x="602.2437" y="408.4966">&#1089;&#1086;&#1077;&#1076;&#1080;&#1085;&#1077;&#1085;&#1080;&#1077;</text></g><g class="message" data-entity-1="part5" data-entity-2="part6" data-source-line="26" id="msg11"><polygon fill="#181818" points="725.7773,438.6953,735.7773,442.6953,725.7773,446.6953,729.7773,442.6953" style="stroke:#181818;stroke-width:1;stroke-linejoin:miter;stroke-miterlimit:10;"/><line style="stroke:#181818;stroke-width:1;" x1="585.2437" x2="731.7773" y1="442.6953" y2="442.6953"/><text fill="#000000" font-family="sans-serif" font-size="13" lengthAdjust="spacing" textLength="128.5337" x="592.2437" y="437.6294">return_connection()</text></g><g class="message" data-entity-1="part5" data-entity-2="part3" data-source-line="27" id="msg12"><polygon fill="#181818" points="379.9297,467.8281,369.9297,471.8281,379.9297,475.8281,375.9297,471.8281" style="stroke:#181818;stroke-width:1;stroke-linejoin:miter;stroke-miterlimit:10;"/><line style="stroke:#181818;stroke-width:1;stroke-dasharray:2,2;" x1="373.9297" x2="579.2437" y1="471.8281" y2="471.8281"/><text fill="#000000" font-family="sans-serif" font-size="13" lengthAdjust="spacing" textLength="68.0596" x="385.9297" y="466.7622">student_id</text></g><g class="message" data-entity-1="part3" data-entity-2="part2" data-source-line="29" id="msg13"><polygon fill="#181818" points="215.0347,496.9609,205.0347,500.9609,215.0347,504.9609,211.0347,500.9609" style="stroke:#181818;stroke-width:1;stroke-linejoin:miter;stroke-miterlimit:10;"/><line style="stroke:#181818;stroke-width:1;stroke-dasharray:2,2;" x1="209.0347" x2="357.9297" y1="500.9609" y2="500.9609"/><text fill="#000000" font-family="sans-serif" font-size="13" lengthAdjust="spacing" textLength="65.3618" x="221.0347" y="495.895">&#1088;&#1077;&#1076;&#1080;&#1088;&#1077;&#1082;&#1090;</text></g><?plantuml-src RL51JiCm4Bpx5LPFS2ZSEN20AnAWSg_Ss5HHWnCvJX6tbeA411BY1NoX82AgGiCNx1ynTf8chThBDhipwvdPT1JAX2bsGqzOC1ggE9FyD8vYHRLYCiL8I4rOeD4nxwOmF_R5VAD-chczDxdxfYobMIeK0Lg7GPWmgQbvinD0PW3dTk8W0nNVRgCwB4aEahkEcrz7B1rjJiSi2ZdJOInhaEziWWALyNhi_czDOob5q5xXEWHRsO2bWbx4gHugqRiySpC-8CHPeTtZMYyzel0mDt_El5dPL_Yvf_R1533uQsUane7YBO1mSTwxeeUCytwgCrub68wP5fNB4WY6zmD6vLJiEM7x3RpqMwAwhHVmTcw-4I_onnrm2yB55ej5E4DXdyp2V9YbMH2AN_NoXh_QZ9bJEsrJvkWjY8YGavtPAJB8xMDxpR5F72j2YLMwKky0Qot-9AxZaOw1_C4O2jrlZhDNilmC63u00ZVfbj53N66dzjbZCEisQtO4qIngz45y0U0NZArGLwZvBbLAw4p97S8yh7M0wh3zi3JN2dzjU6VKarA5hqk85PAtB-Sv_m00?></g></svg>