<svg xmlns="http://www.w3.org/2000/svg" xmlns:xlink="http://www.w3.org/1999/xlink" contentStyleType="text/css" data-diagram-type="DESCRIPTION" height="426px" preserveAspectRatio="none" style="width:398px;height:426px;" version="1.1" viewBox="0 0 398 426" width="398px" zoomAndPan="magnify"><?plantuml 1.2026.5?><defs/><g><!--cluster ?????????? ??????????--><g class="cluster" data-qualified-name=".......... .........." data-source-line="4" id="ent0001"><rect fill="none" height="259" rx="2.5" ry="2.5" style="stroke:#181818;stroke-width:1;" width="377.49" x="7" y="7"/><text fill="#000000" font-family="sans-serif" font-size="14" font-weight="700" lengthAdjust="spacing" textLength="202.6104" x="94.4398" y="21.9951">&#1044;&#1077;&#1089;&#1082;&#1090;&#1086;&#1087;&#1085;&#1086;&#1077; &#1087;&#1088;&#1080;&#1083;&#1086;&#1078;&#1077;&#1085;&#1080;&#1077;</text></g><!--entity gui--><g class="entity" data-qualified-name=".......... ...........gui" data-source-line="5" id="ent0002"><rect fill="#F1F1F1" height="46.2969" rx="2.5" ry="2.5" style="stroke:#181818;stroke-width:0.5;" width="83.2715" x="23" y="203.85"/><rect fill="#F1F1F1" height="10" style="stroke:#181818;stroke-width:0.5;" width="15" x="86.2715" y="208.85"/><rect fill="#F1F1F1" height="2" style="stroke:#181818;stroke-width:0.5;" width="4" x="84.2715" y="210.85"/><rect fill="#F1F1F1" height="2" style="stroke:#181818;stroke-width:0.5;" width="4" x="84.2715" y="214.85"/><text fill="#000000" font-family="sans-serif" font-size="14" lengthAdjust="spacing" textLength="43.2715" x="38" y="236.8451">gui.py</text></g><!--entity stats--><g class="entity" data-qualified-name=".......... ...........stats" data-source-line="6" id="ent0003"><rect fill="#F1F1F1" height="46.2969" rx="2.5" ry="2.5" style="stroke:#181818;stroke-width:0.5;" width="95.7676" x="259.5" y="203.85"/><rect fill="#F1F1F1" height="10" style="stroke:#181818;stroke-width:0.5;" width="15" x="335.2676" y="208.85"/><rect fill="#F1F1F1" height="2" style="stroke:#181818;stroke-width:0.5;" width="4" x="333.2676" y="210.85"/><rect fill="#F1F1F1" height="2" style="stroke:#181818;stroke-width:0.5;" width="4" x="333.2676" y="214.85"/><text fill="#000000" font-family="sans-serif" font-size="14" lengthAdjust="spacing" textLength="55.7676" x="274.5" y="236.8451">stats.py</text></g><!--entity logger--><g class="entity" data-qualified-name=".......... ...........logger" data-source-line="7" id="ent0004"><rect fill="#F1F1F1" height="46.2969" rx="2.5" ry="2.5" style="stroke:#181818;stroke-width:0.5;" width="106.2197" x="254.27" y="122.85"/><rect fill="#F1F1F1" height="10" style="stroke:#181818;stroke-width:0.5;" width="15" x="340.4897" y="127.85"/><rect fill="#F1F1F1" height="2" style="stroke:#181818;stroke-width:0.5;" width="4" x="338.4897" y="129.85"/><rect fill="#F1F1F1" height="2" style="stroke:#181818;stroke-width:0.5;" width="4" x="338.4897" y="133.85"/><text fill="#000000" font-family="sans-serif" font-size="14" lengthAdjust="spacing" textLength="66.2197" x="269.27" y="155.8451">logger.py</text></g><!--entity importer--><g class="entity" data-qualified-name=".......... ...........importer" data-source-line="8" id="ent0005"><rect fill="#F1F1F1" height="46.2969" rx="2.5" ry="2.5" style="stroke:#181818;stroke-width:0.5;" width="122.2158" x="246.27" y="41.85"/><rect fill="#F1F1F1" height="10" style="stroke:#181818;stroke-width:0.5;" width="15" x="348.4858" y="46.85"/><rect fill="#F1F1F1" height="2" style="stroke:#181818;stroke-width:0.5;" width="4" x="346.4858" y="48.85"/><rect fill="#F1F1F1" height="2" style="stroke:#181818;stroke-width:0.5;" width="4" x="346.4858" y="52.85"/><text fill="#000000" font-family="sans-serif" font-size="14" lengthAdjust="spacing" textLength="82.2158" x="261.27" y="74.8451">importer.py</text></g><!--entity tk--><g class="entity" data-qualified-name="tk" data-source-line="11" id="ent0006"><rect fill="#F1F1F1" height="46.2969" rx="2.5" ry="2.5" style="stroke:#181818;stroke-width:0.5;" width="89.2803" x="262.74" y="284.85"/><rect fill="#F1F1F1" height="10" style="stroke:#181818;stroke-width:0.5;" width="15" x="332.0203" y="289.85"/><rect fill="#F1F1F1" height="2" style="stroke:#181818;stroke-width:0.5;" width="4" x="330.0203" y="291.85"/><rect fill="#F1F1F1" height="2" style="stroke:#181818;stroke-width:0.5;" width="4" x="330.0203" y="295.85"/><text fill="#000000" font-family="sans-serif" font-size="14" lengthAdjust="spacing" textLength="49.2803" x="277.74" y="317.8451">Tkinter</text></g><!--entity browser--><g class="entity" data-qualified-name="browser" data-source-line="12" id="ent0007"><rect fill="#F1F1F1" height="46.2969" rx="2.5" ry="2.5" style="stroke:#181818;stroke-width:0.5;" width="100.2998" x="257.23" y="365.85"/><rect fill="#F1F1F1" height="10" style="stroke:#181818;stroke-width:0.5;" width="15" x="337.5298" y="370.85"/><rect fill="#F1F1F1" height="2" style="stroke:#181818;stroke-width:0.5;" width="4" x="335.5298" y="372.85"/><rect fill="#F1F1F1" height="2" style="stroke:#181818;stroke-width:0.5;" width="4" x="335.5298" y="376.85"/><text fill="#000000" font-family="sans-serif" font-size="14" lengthAdjust="spacing" textLength="60.2998" x="272.23" y="398.8451">&#1041;&#1088;&#1072;&#1091;&#1079;&#1077;&#1088;</text></g><!--link gui to stats--><g class="link" data-entity-1="ent0002" data-entity-2="ent0003" data-link-type="dependency" data-source-line="14" id="lnk8"><path d="M106.75,227 C149.05,227 209.86,227 254.25,227" fill="none" id="gui-to-stats" style="stroke:#181818;stroke-width:1;"/><polygon fill="#181818" points="259.25,227,250.25,223,254.25,227,250.25,231,259.25,227" style="stroke:#181818;stroke-width:1;stroke-linejoin:miter;stroke-miterlimit:10;"/></g><!--link gui to logger--><g class="link" data-entity-1="ent0002" data-entity-2="ent0004" data-link-type="dependency" data-source-line="15" id="lnk9"><path d="M106.75,213.17 C147.44,199.48 205.141,180.0643 249.341,165.1943" fill="none" id="gui-to-logger" style="stroke:#181818;stroke-width:1;"/><polygon fill="#181818" points="254.08,163.6,244.2743,162.6786,249.341,165.1943,246.8253,170.261,254.08,163.6" style="stroke:#181818;stroke-width:1;stroke-linejoin:miter;stroke-miterlimit:10;"/></g><!--link gui to importer--><g class="link" data-entity-1="ent0002" data-entity-2="ent0005" data-link-type="dependency" data-source-line="16" id="lnk10"><path d="M100.22,203.54 C136.54,178.93 195.35,139.14 246.27,105 C254.29,99.63 258.759,96.6423 266.909,91.2123" fill="none" id="gui-to-importer" style="stroke:#181818;stroke-width:1;"/><polygon fill="#181818" points="271.07,88.44,261.3623,90.1014,266.909,91.2123,265.798,96.759,271.07,88.44" style="stroke:#181818;stroke-width:1;stroke-linejoin:miter;stroke-miterlimit:10;"/></g><!--link gui to tk--><g class="link" data-entity-1="ent0002" data-entity-2="ent0006" data-link-type="dependency" data-source-line="17" id="lnk11"><path d="M106.67,241.7 C116.36,245.12 126.67,248.72 136.27,252 C179.08,266.62 223.4243,281.1662 257.8343,292.3362" fill="none" id="gui-to-tk" style="stroke:#181818;stroke-width:1;"/><polygon fill="#181818" points="262.59,293.88,255.2647,287.2966,257.8343,292.3362,252.7947,294.9058,262.59,293.88" style="stroke:#181818;stroke-width:1;stroke-linejoin:miter;stroke-miterlimit:10;"/><text fill="#000000" font-family="sans-serif" font-size="13" lengthAdjust="spacing" textLength="78.1968" x="137.27" y="248.0669">&#1080;&#1089;&#1087;&#1086;&#1083;&#1100;&#1079;&#1091;&#1077;&#1090;</text></g><!--link gui to browser--><g class="link" data-entity-1="ent0002" data-entity-2="ent0007" data-link-type="dependency" data-source-line="18" id="lnk12"><path d="M83.23,250.34 C96.49,266.81 115.85,288.6 136.27,304 C173.44,332.02 216.663,353.0169 252.133,367.9769" fill="none" id="gui-to-browser" style="stroke:#181818;stroke-width:1;"/><polygon fill="#181818" points="256.74,369.92,250.0019,362.7369,252.133,367.9769,246.8929,370.1081,256.74,369.92" style="stroke:#181818;stroke-width:1;stroke-linejoin:miter;stroke-miterlimit:10;"/><text fill="#000000" font-family="sans-serif" font-size="13" lengthAdjust="spacing" textLength="69.6084" x="141.77" y="300.0669">&#1079;&#1072;&#1087;&#1091;&#1089;&#1082;&#1072;&#1077;&#1090;</text></g><?plantuml-src NP1DJiCm48NtFiKe-t805YpW2bp0fCPOIUt8dWeXX5JQRJULE4Wt9X4Lv0hZ6p49SQdYXJLlvjFyl5ez8g03R_GJmj9uLQ9nLeJAs4PwkO9RMLRQkxLTthdQUK0lRU2IiYZ4W4khQmK5VL1Cx_ILjlH3FNtp7u7wjA6EJYm-ANAoerZ0gm1-fLirpd8RAFJQN3Kl1SW07Cwh0IM6N1_5dAYTrifdv4_D6SEHntygQ_4cn0LspuTpTaImkgpGWMyvfXsrVEXc11wyUmxSGl3Mi5ZSJDjbDIsIvNbYJc05rq0TkzQpGQUqfvRRnxGz4zE00Mlfo6xk1eivOkWN?></g></svg>