<svg xmlns="http://www.w3.org/2000/svg" xmlns:xlink="http://www.w3.org/1999/xlink" contentStyleType="text/css" data-diagram-type="DESCRIPTION" height="507px" preserveAspectRatio="none" style="width:432px;height:507px;" version="1.1" viewBox="0 0 432 507" width="432px" zoomAndPan="magnify"><?plantuml 1.2026.5?><defs/><g><!--cluster ???-??????????--><g class="cluster" data-qualified-name="...-.........." data-source-line="4" id="ent0001"><rect fill="none" height="421" rx="2.5" ry="2.5" style="stroke:#181818;stroke-width:1;" width="411.73" x="7" y="7"/><text fill="#000000" font-family="sans-serif" font-size="14" font-weight="700" lengthAdjust="spacing" textLength="137.5322" x="144.0989" y="21.9951">&#1042;&#1077;&#1073;-&#1087;&#1088;&#1080;&#1083;&#1086;&#1078;&#1077;&#1085;&#1080;&#1077;</text></g><!--entity app--><g class="entity" data-qualified-name="...-...........app" data-source-line="5" id="ent0002"><rect fill="#F1F1F1" height="46.2969" rx="2.5" ry="2.5" style="stroke:#181818;stroke-width:0.5;" width="87.9746" x="23" y="244.85"/><rect fill="#F1F1F1" height="10" style="stroke:#181818;stroke-width:0.5;" width="15" x="90.9746" y="249.85"/><rect fill="#F1F1F1" height="2" style="stroke:#181818;stroke-width:0.5;" width="4" x="88.9746" y="251.85"/><rect fill="#F1F1F1" height="2" style="stroke:#181818;stroke-width:0.5;" width="4" x="88.9746" y="255.85"/><text fill="#000000" font-family="sans-serif" font-size="14" lengthAdjust="spacing" textLength="47.9746" x="38" y="277.8451">app.py</text></g><!--entity models--><g class="entity" data-qualified-name="...-...........models" data-source-line="6" id="ent0003"><rect fill="#F1F1F1" height="46.2969" rx="2.5" ry="2.5" style="stroke:#181818;stroke-width:0.5;" width="112.5088" x="270.6" y="365.85"/><rect fill="#F1F1F1" height="10" style="stroke:#181818;stroke-width:0.5;" width="15" x="363.1088" y="370.85"/><rect fill="#F1F1F1" height="2" style="stroke:#181818;stroke-width:0.5;" width="4" x="361.1088" y="372.85"/><rect fill="#F1F1F1" height="2" style="stroke:#181818;stroke-width:0.5;" width="4" x="361.1088" y="376.85"/><text fill="#000000" font-family="sans-serif" font-size="14" lengthAdjust="spacing" textLength="72.5088" x="285.6" y="398.8451">models.py</text></g><!--entity crud--><g class="entity" data-qualified-name="...-...........crud" data-source-line="7" id="ent0004"><rect fill="#F1F1F1" height="46.2969" rx="2.5" ry="2.5" style="stroke:#181818;stroke-width:0.5;" width="92.835" x="280.43" y="284.85"/><rect fill="#F1F1F1" height="10" style="stroke:#181818;stroke-width:0.5;" width="15" x="353.265" y="289.85"/><rect fill="#F1F1F1" height="2" style="stroke:#181818;stroke-width:0.5;" width="4" x="351.265" y="291.85"/><rect fill="#F1F1F1" height="2" style="stroke:#181818;stroke-width:0.5;" width="4" x="351.265" y="295.85"/><text fill="#000000" font-family="sans-serif" font-size="14" lengthAdjust="spacing" textLength="52.835" x="295.43" y="317.8451">crud.py</text></g><!--entity queries--><g class="entity" data-qualified-name="...-...........queries" data-source-line="8" id="ent0005"><rect fill="#F1F1F1" height="46.2969" rx="2.5" ry="2.5" style="stroke:#181818;stroke-width:0.5;" width="113.5479" x="270.08" y="203.85"/><rect fill="#F1F1F1" height="10" style="stroke:#181818;stroke-width:0.5;" width="15" x="363.6279" y="208.85"/><rect fill="#F1F1F1" height="2" style="stroke:#181818;stroke-width:0.5;" width="4" x="361.6279" y="210.85"/><rect fill="#F1F1F1" height="2" style="stroke:#181818;stroke-width:0.5;" width="4" x="361.6279" y="214.85"/><text fill="#000000" font-family="sans-serif" font-size="14" lengthAdjust="spacing" textLength="73.5479" x="285.08" y="236.8451">queries.py</text></g><!--entity valid--><g class="entity" data-qualified-name="...-...........valid" data-source-line="9" id="ent0006"><rect fill="#F1F1F1" height="46.2969" rx="2.5" ry="2.5" style="stroke:#181818;stroke-width:0.5;" width="130.5488" x="261.58" y="122.85"/><rect fill="#F1F1F1" height="10" style="stroke:#181818;stroke-width:0.5;" width="15" x="372.1288" y="127.85"/><rect fill="#F1F1F1" height="2" style="stroke:#181818;stroke-width:0.5;" width="4" x="370.1288" y="129.85"/><rect fill="#F1F1F1" height="2" style="stroke:#181818;stroke-width:0.5;" width="4" x="370.1288" y="133.85"/><text fill="#000000" font-family="sans-serif" font-size="14" lengthAdjust="spacing" textLength="90.5488" x="276.58" y="155.8451">validation.py</text></g><!--entity templates--><g class="entity" data-qualified-name="...-...........templates" data-source-line="10" id="ent0007"><rect fill="#F1F1F1" height="46.2969" rx="2.5" ry="2.5" style="stroke:#181818;stroke-width:0.5;" width="151.7539" x="250.97" y="41.85"/><rect fill="#F1F1F1" height="10" style="stroke:#181818;stroke-width:0.5;" width="15" x="382.7239" y="46.85"/><rect fill="#F1F1F1" height="2" style="stroke:#181818;stroke-width:0.5;" width="4" x="380.7239" y="48.85"/><rect fill="#F1F1F1" height="2" style="stroke:#181818;stroke-width:0.5;" width="4" x="380.7239" y="52.85"/><text fill="#000000" font-family="sans-serif" font-size="14" lengthAdjust="spacing" textLength="111.7539" x="265.97" y="74.8451">HTML-&#1096;&#1072;&#1073;&#1083;&#1086;&#1085;&#1099;</text></g><!--entity flask--><g class="entity" data-qualified-name="flask" data-source-line="13" id="ent0008"><rect fill="#F1F1F1" height="46.2969" rx="2.5" ry="2.5" style="stroke:#181818;stroke-width:0.5;" width="75.9229" x="288.89" y="446.85"/><rect fill="#F1F1F1" height="10" style="stroke:#181818;stroke-width:0.5;" width="15" x="344.8129" y="451.85"/><rect fill="#F1F1F1" height="2" style="stroke:#181818;stroke-width:0.5;" width="4" x="342.8129" y="453.85"/><rect fill="#F1F1F1" height="2" style="stroke:#181818;stroke-width:0.5;" width="4" x="342.8129" y="457.85"/><text fill="#000000" font-family="sans-serif" font-size="14" lengthAdjust="spacing" textLength="35.9229" x="303.89" y="479.8451">Flask</text></g><!--link app to models--><g class="link" data-entity-1="ent0002" data-entity-2="ent0003" data-link-type="dependency" data-source-line="15" id="lnk9"><path d="M111.44,288.39 C156.8,309.67 223.3133,340.8865 271.0633,363.2865" fill="none" id="app-to-models" style="stroke:#181818;stroke-width:1;"/><polygon fill="#181818" points="275.59,365.41,269.1408,357.9664,271.0633,363.2865,265.7432,365.209,275.59,365.41" style="stroke:#181818;stroke-width:1;stroke-linejoin:miter;stroke-miterlimit:10;"/></g><!--link app to crud--><g class="link" data-entity-1="ent0002" data-entity-2="ent0004" data-link-type="dependency" data-source-line="16" id="lnk10"><path d="M111.44,274.74 C158.23,282 227.4191,292.7333 275.1091,300.1333" fill="none" id="app-to-crud" style="stroke:#181818;stroke-width:1;"/><polygon fill="#181818" points="280.05,300.9,271.7698,295.5673,275.1091,300.1333,270.5431,303.4727,280.05,300.9" style="stroke:#181818;stroke-width:1;stroke-linejoin:miter;stroke-miterlimit:10;"/></g><!--link app to queries--><g class="link" data-entity-1="ent0002" data-entity-2="ent0005" data-link-type="dependency" data-source-line="17" id="lnk11"><path d="M111.44,261.09 C154.93,254.18 217.102,244.2953 264.642,236.7353" fill="none" id="app-to-queries" style="stroke:#181818;stroke-width:1;"/><polygon fill="#181818" points="269.58,235.95,260.0635,233.4131,264.642,236.7353,261.3199,241.3138,269.58,235.95" style="stroke:#181818;stroke-width:1;stroke-linejoin:miter;stroke-miterlimit:10;"/></g><!--link app to valid--><g class="link" data-entity-1="ent0002" data-entity-2="ent0006" data-link-type="dependency" data-source-line="18" id="lnk12"><path d="M111.44,247.44 C156.94,225.92 223.7703,194.2982 271.5203,171.7082" fill="none" id="app-to-valid" style="stroke:#181818;stroke-width:1;"/><polygon fill="#181818" points="276.04,169.57,266.1939,169.803,271.5203,171.7082,269.6151,177.0346,276.04,169.57" style="stroke:#181818;stroke-width:1;stroke-linejoin:miter;stroke-miterlimit:10;"/></g><!--link app to templates--><g class="link" data-entity-1="ent0002" data-entity-2="ent0007" data-link-type="dependency" data-source-line="19" id="lnk13"><path d="M90.74,244.46 C123.94,210.91 188.52,148.58 250.97,105 C259.31,99.18 264.227,96.0141 273.337,90.9641" fill="none" id="app-to-templates" style="stroke:#181818;stroke-width:1;"/><polygon fill="#181818" points="277.71,88.54,267.8992,89.405,273.337,90.9641,271.7778,96.4019,277.71,88.54" style="stroke:#181818;stroke-width:1;stroke-linejoin:miter;stroke-miterlimit:10;"/></g><!--link app to flask--><g class="link" data-entity-1="ent0002" data-entity-2="ent0008" data-link-type="dependency" data-source-line="20" id="lnk14"><path d="M81.67,291.29 C94.89,312.39 116.48,343.39 140.97,365 C186.23,404.93 244.5285,434.6324 284.0485,452.3724" fill="none" id="app-to-flask" style="stroke:#181818;stroke-width:1;"/><polygon fill="#181818" points="288.61,454.42,282.0374,447.0851,284.0485,452.3724,278.7612,454.3835,288.61,454.42" style="stroke:#181818;stroke-width:1;stroke-linejoin:miter;stroke-miterlimit:10;"/><text fill="#000000" font-family="sans-serif" font-size="13" lengthAdjust="spacing" textLength="78.1968" x="141.97" y="361.0669">&#1080;&#1089;&#1087;&#1086;&#1083;&#1100;&#1079;&#1091;&#1077;&#1090;</text></g><?plantuml-src NOyzJiGm48LxdsAKFXo0WW8aH04T5nZ5tc35iOtj8264n4-311KdOOl0Igjbhp2-4OuNBoYkviryCtvFYKM0OC39zYe0bquqGHhDV2UrHOSz76FJjSuCcfyOPHm4XzgdaT21iGb7tIe15RtJICkQjl61LhIcR_fCZKsgnmhk6AJNcDuQdHQXGciFx6q5w26Lysblk52-03irPnety49CzNn-FGWdnVx8hvnJDwWanobo0NDdZfrTNfpNyOK-Q9cZRU9hXeFehSAGxjupOFytJXNwBZEBgKhJb1Fg-gZ4AJ9xBwAuB7fdfgY_tqedtuP3e5Lyf6qojevlz1MVQOnFFm00?></g></svg>